<svg xmlns="http://www.w3.org/2000/svg" width="61" height="61" viewBox="0 0 61 61"><defs><style>.a,.b{fill:#666;}.a{opacity:0;}.b{stroke:rgba(0,0,0,0);}</style></defs><g transform="translate(-59.5 -463.5)"><rect class="a" width="60" height="60" transform="translate(60 464)"/><path class="b" d="M5.626,60A5.633,5.633,0,0,1,0,54.374V44.35a1.874,1.874,0,0,1,1.876-1.873H17.05a3.262,3.262,0,0,1,3.257,3.253,3.75,3.75,0,0,0,3.75,3.75H35.7a3.752,3.752,0,0,0,3.75-3.75,3.261,3.261,0,0,1,3.26-3.253h15.41A1.874,1.874,0,0,1,60,44.35V54.374A5.633,5.633,0,0,1,54.374,60ZM3.75,54.374A1.879,1.879,0,0,0,5.626,56.25H54.374a1.879,1.879,0,0,0,1.876-1.876V46.227H43.193a7.514,7.514,0,0,1-7.489,7H24.057a7.509,7.509,0,0,1-7.486-7H3.75Zm23.858-8.147A5.633,5.633,0,0,1,21.981,40.6V40.23H5.626A5.633,5.633,0,0,1,0,34.6V20.3a5.633,5.633,0,0,1,5.626-5.623H21.154a1.875,1.875,0,0,1,0,3.75H5.626A1.878,1.878,0,0,0,3.75,20.3V34.6A1.879,1.879,0,0,0,5.626,36.48H23.858a1.871,1.871,0,0,1,1.873,1.873V40.6a1.879,1.879,0,0,0,1.876,1.876h4.782A1.878,1.878,0,0,0,34.263,40.6V38.353a1.874,1.874,0,0,1,1.876-1.873H54.374A1.879,1.879,0,0,0,56.25,34.6V20.3a1.878,1.878,0,0,0-1.876-1.873H38.842a1.875,1.875,0,1,1,0-3.75H54.374A5.633,5.633,0,0,1,60,20.3V34.6a5.633,5.633,0,0,1-5.626,5.626H38.012V40.6a5.63,5.63,0,0,1-5.623,5.626ZM30.894,28V10.722a1.875,1.875,0,0,1,1.876-1.876H34.32L30,4.526l-4.32,4.32h1.549A1.876,1.876,0,0,1,29.1,10.722V28a1.875,1.875,0,0,1-3.75,0V12.6h-4.2a1.875,1.875,0,0,1-1.735-1.158,1.9,1.9,0,0,1,.4-2.045L28.677.547a1.878,1.878,0,0,1,2.649,0l8.842,8.846a1.875,1.875,0,0,1-1.323,3.2h-4.2V28a1.876,1.876,0,0,1-3.753,0Z" transform="translate(60 464)"/></g></svg>