<svg xmlns="http://www.w3.org/2000/svg" width="61" height="59.999" viewBox="0 0 61 59.999"><defs><style>.a,.b{fill:#666;}.a{opacity:0;}.b{stroke:rgba(0,0,0,0);stroke-miterlimit:10;}</style></defs><g transform="translate(-59.5 -464)"><rect class="a" width="60" height="59.999" transform="translate(60 464)"/><path class="b" d="M5.626,57.755c-3.1,0-5.626-2.819-5.626-6.3V44.095a2,2,0,0,1,1.876-2.1,2,2,0,0,1,1.873,2.1v7.365a2,2,0,0,0,1.876,2.1H54.374a2,2,0,0,0,1.876-2.1V44.095a1.887,1.887,0,1,1,3.75,0v7.365c0,3.476-2.524,6.3-5.626,6.3ZM27.611,47.363c-3.1,0-5.626-2.823-5.626-6.3v-.416H5.626c-3.1,0-5.626-2.827-5.626-6.3V9.715c0-3.473,2.524-6.3,5.626-6.3H18.971a2,2,0,0,1,1.876,2.1,2,2,0,0,1-1.876,2.1H5.626a2,2,0,0,0-1.876,2.1V34.353a2,2,0,0,0,1.876,2.1H23.861a2,2,0,0,1,1.876,2.1v2.517a2,2,0,0,0,1.873,2.1h4.779a2,2,0,0,0,1.873-2.1V38.551a2,2,0,0,1,1.876-2.1H54.374a2,2,0,0,0,1.876-2.1V9.715a2,2,0,0,0-1.876-2.1H41.029a2,2,0,0,1-1.876-2.1,2,2,0,0,1,1.876-2.1H54.374c3.1,0,5.626,2.827,5.626,6.3V34.353c0,3.473-2.524,6.3-5.626,6.3H38.012v.416c0,3.473-2.521,6.3-5.623,6.3ZM28.677,34.4l-8.853-9.9a2.3,2.3,0,0,1-.4-2.286,1.89,1.89,0,0,1,1.735-1.3h4.2V2.1a1.887,1.887,0,1,1,3.75,0V23.013a2,2,0,0,1-1.873,2.1H25.68L30,29.954l4.323-4.841H32.774a1.991,1.991,0,0,1-1.873-2.1V2.1a1.887,1.887,0,1,1,3.75,0V20.912h4.2a1.886,1.886,0,0,1,1.731,1.3,2.282,2.282,0,0,1-.408,2.286l-8.846,9.9a1.726,1.726,0,0,1-2.649,0Z" transform="translate(60 465.1)"/></g></svg>